<?xml version="1.0" encoding="UTF-8" standalone="no"?><svg xmlns="http://www.w3.org/2000/svg" xmlns:xlink="http://www.w3.org/1999/xlink" contentStyleType="text/css" height="823px" preserveAspectRatio="none" style="width:783px;height:823px;background:#FFF5EE;" version="1.1" viewBox="0 0 783 823" width="783px" zoomAndPan="magnify"><defs/><g><!--MD5=[8413f8248b2da7966d2de021109ec289]
class users--><g id="elem_users"><rect codeLine="27" fill="#F1F1F1" height="241.7031" id="users" rx="2.5" ry="2.5" style="stroke:#181818;stroke-width:0.5;" width="236" x="254.5" y="7"/><rect fill="#98FB98" height="32" rx="2.5" ry="2.5" style="stroke:#98FB98;stroke-width:0.5;" width="236" x="254.5" y="7"/><rect fill="#98FB98" height="2.5" style="stroke:#98FB98;stroke-width:0.5;" width="236" x="254.5" y="36.5"/><rect codeLine="27" fill="none" height="241.7031" id="users" rx="2.5" ry="2.5" style="stroke:#181818;stroke-width:0.5;" width="236" x="254.5" y="7"/><ellipse cx="288.85" cy="23" fill="#ADD1B2" rx="11" ry="11" style="stroke:#181818;stroke-width:1.0;"/><path d="M287.7094,23.7969 L287.7094,26.2969 L292.0375,26.2969 L292.0375,25.375 Q292.0375,24.7656 292.2719,24.5 Q292.5219,24.2344 292.8969,24.2344 Q293.2719,24.2344 293.5063,24.5 Q293.7406,24.7656 293.7406,25.375 L293.7406,28 L285.7406,28 Q285.1156,28 284.85,27.7656 Q284.6,27.5313 284.6,27.1406 Q284.6,26.7656 284.8656,26.5313 Q285.1313,26.2969 285.7406,26.2969 L286.0063,26.2969 L286.0063,19.6406 L285.7406,19.6406 Q285.1156,19.6406 284.85,19.4063 Q284.6,19.1719 284.6,18.7813 Q284.6,18.4063 284.85,18.1719 Q285.1156,17.9375 285.7406,17.9375 L293.3656,17.9375 L293.3656,20.5313 Q293.3656,21.1406 293.1313,21.4063 Q292.9125,21.6563 292.5219,21.6563 Q292.1469,21.6563 291.9125,21.4063 Q291.6781,21.1406 291.6781,20.5313 L291.6781,19.6406 L287.7094,19.6406 L287.7094,22.0938 L289.1938,22.0938 Q289.1938,21.4375 289.3188,21.25 Q289.5844,20.8438 290.0531,20.8438 Q290.4281,20.8438 290.6625,21.1094 Q290.8969,21.3594 290.8969,21.9688 L290.8969,23.9375 Q290.8969,24.4844 290.7719,24.6719 Q290.5063,25.0625 290.0531,25.0625 Q289.5844,25.0625 289.3188,24.6563 Q289.1938,24.4688 289.1938,23.7969 L287.7094,23.7969 Z " fill="#000000"/><text fill="#000000" font-family="sans-serif" font-size="14" font-weight="bold" lengthAdjust="spacing" textLength="157" x="307.15" y="28.7285">Пользователи (users)</text><line style="stroke:#181818;stroke-width:0.5;" x1="255.5" x2="489.5" y1="39" y2="39"/><ellipse cx="265.5" cy="53.3047" fill="#000000" rx="3" ry="3" style="stroke:#000000;stroke-width:1.0;"/><text fill="#4169E1" font-family="sans-serif" font-size="14" lengthAdjust="spacing" textLength="185" x="274.5" y="57.5332">id : uuid «autogenerated PK»</text><line style="stroke:#181818;stroke-width:1.0;stroke-dasharray:1.0,2.0;" x1="255.5" x2="489.5" y1="64.6094" y2="64.6094"/><ellipse cx="265.5" cy="78.9141" fill="#000000" rx="3" ry="3" style="stroke:#000000;stroke-width:1.0;"/><text fill="#DC143C" font-family="sans-serif" font-size="14" lengthAdjust="spacing" textLength="194" x="274.5" y="83.1426">username : sting(50) «unique»</text><ellipse cx="265.5" cy="96.5234" fill="#000000" rx="3" ry="3" style="stroke:#000000;stroke-width:1.0;"/><text fill="#000000" font-family="sans-serif" font-size="14" lengthAdjust="spacing" textLength="128" x="274.5" y="100.752">password : sting(50)</text><ellipse cx="265.5" cy="114.1328" fill="#000000" rx="3" ry="3" style="stroke:#000000;stroke-width:1.0;"/><text fill="#000000" font-family="sans-serif" font-size="14" lengthAdjust="spacing" textLength="116" x="274.5" y="118.3613">name : string(200)</text><ellipse cx="265.5" cy="131.7422" fill="#000000" rx="3" ry="3" style="stroke:#000000;stroke-width:1.0;"/><text fill="#000000" font-family="sans-serif" font-size="14" lengthAdjust="spacing" textLength="136" x="274.5" y="135.9707">surname : string(200)</text><text fill="#000000" font-family="sans-serif" font-size="14" lengthAdjust="spacing" textLength="150" x="274.5" y="153.5801">patronimyc : string(200)</text><ellipse cx="265.5" cy="166.9609" fill="#000000" rx="3" ry="3" style="stroke:#000000;stroke-width:1.0;"/><text fill="#000000" font-family="sans-serif" font-size="14" lengthAdjust="spacing" textLength="114" x="274.5" y="171.1895">email : string(100)</text><text fill="#000000" font-family="sans-serif" font-size="14" lengthAdjust="spacing" textLength="210" x="274.5" y="188.7988">is_active : boolean «default true»</text><text fill="#000000" font-family="sans-serif" font-size="14" lengthAdjust="spacing" textLength="104" x="274.5" y="206.4082">birth_date : date</text><text fill="#000000" font-family="sans-serif" font-size="14" lengthAdjust="spacing" textLength="144" x="274.5" y="224.0176">created_at : timestamp</text><text fill="#000000" font-family="sans-serif" font-size="14" lengthAdjust="spacing" textLength="144" x="274.5" y="241.627">updated_at: timestamp</text></g><!--MD5=[391d77746ffa25e4085edcb054eae0e6]
class requests--><g id="elem_requests"><rect codeLine="42" fill="#F1F1F1" height="224.0938" id="requests" rx="2.5" ry="2.5" style="stroke:#181818;stroke-width:0.5;" width="263" x="241" y="309"/><rect fill="#98FB98" height="32" rx="2.5" ry="2.5" style="stroke:#98FB98;stroke-width:0.5;" width="263" x="241" y="309"/><rect fill="#98FB98" height="2.5" style="stroke:#98FB98;stroke-width:0.5;" width="263" x="241" y="338.5"/><rect codeLine="42" fill="none" height="224.0938" id="requests" rx="2.5" ry="2.5" style="stroke:#181818;stroke-width:0.5;" width="263" x="241" y="309"/><ellipse cx="302.75" cy="325" fill="#ADD1B2" rx="11" ry="11" style="stroke:#181818;stroke-width:1.0;"/><path d="M301.6094,325.7969 L301.6094,328.2969 L305.9375,328.2969 L305.9375,327.375 Q305.9375,326.7656 306.1719,326.5 Q306.4219,326.2344 306.7969,326.2344 Q307.1719,326.2344 307.4063,326.5 Q307.6406,326.7656 307.6406,327.375 L307.6406,330 L299.6406,330 Q299.0156,330 298.75,329.7656 Q298.5,329.5313 298.5,329.1406 Q298.5,328.7656 298.7656,328.5313 Q299.0313,328.2969 299.6406,328.2969 L299.9063,328.2969 L299.9063,321.6406 L299.6406,321.6406 Q299.0156,321.6406 298.75,321.4063 Q298.5,321.1719 298.5,320.7813 Q298.5,320.4063 298.75,320.1719 Q299.0156,319.9375 299.6406,319.9375 L307.2656,319.9375 L307.2656,322.5313 Q307.2656,323.1406 307.0313,323.4063 Q306.8125,323.6563 306.4219,323.6563 Q306.0469,323.6563 305.8125,323.4063 Q305.5781,323.1406 305.5781,322.5313 L305.5781,321.6406 L301.6094,321.6406 L301.6094,324.0938 L303.0938,324.0938 Q303.0938,323.4375 303.2188,323.25 Q303.4844,322.8438 303.9531,322.8438 Q304.3281,322.8438 304.5625,323.1094 Q304.7969,323.3594 304.7969,323.9688 L304.7969,325.9375 Q304.7969,326.4844 304.6719,326.6719 Q304.4063,327.0625 303.9531,327.0625 Q303.4844,327.0625 303.2188,326.6563 Q303.0938,326.4688 303.0938,325.7969 L301.6094,325.7969 Z " fill="#000000"/><text fill="#000000" font-family="sans-serif" font-size="14" font-weight="bold" lengthAdjust="spacing" textLength="127" x="323.25" y="330.7285">Заявки (requests)</text><line style="stroke:#181818;stroke-width:0.5;" x1="242" x2="503" y1="341" y2="341"/><ellipse cx="252" cy="355.3047" fill="#000000" rx="3" ry="3" style="stroke:#000000;stroke-width:1.0;"/><text fill="#4169E1" font-family="sans-serif" font-size="14" lengthAdjust="spacing" textLength="185" x="261" y="359.5332">id : uuid «autogenerated PK»</text><line style="stroke:#181818;stroke-width:1.0;stroke-dasharray:1.0,2.0;" x1="242" x2="503" y1="366.6094" y2="366.6094"/><ellipse cx="252" cy="380.9141" fill="#000000" rx="3" ry="3" style="stroke:#000000;stroke-width:1.0;"/><text fill="#000000" font-family="sans-serif" font-size="14" lengthAdjust="spacing" textLength="203" x="261" y="385.1426">auhor_id : uuid «users.uuid FK»</text><ellipse cx="252" cy="398.5234" fill="#000000" rx="3" ry="3" style="stroke:#000000;stroke-width:1.0;"/><text fill="#000000" font-family="sans-serif" font-size="14" lengthAdjust="spacing" textLength="193" x="261" y="402.752">service_id : int «service.id FK»</text><ellipse cx="252" cy="416.1328" fill="#000000" rx="3" ry="3" style="stroke:#000000;stroke-width:1.0;"/><text fill="#000000" font-family="sans-serif" font-size="14" lengthAdjust="spacing" textLength="157" x="261" y="420.3613">status_id : int «statuses»</text><ellipse cx="252" cy="433.7422" fill="#000000" rx="3" ry="3" style="stroke:#000000;stroke-width:1.0;"/><text fill="#000000" font-family="sans-serif" font-size="14" lengthAdjust="spacing" textLength="103" x="261" y="437.9707">description : text</text><text fill="#000000" font-family="sans-serif" font-size="14" lengthAdjust="spacing" textLength="237" x="261" y="455.5801">attached_file_id : uuid «files.uuid FK»</text><text fill="#000000" font-family="sans-serif" font-size="14" lengthAdjust="spacing" textLength="144" x="261" y="473.1895">created_at : timestamp</text><text fill="#000000" font-family="sans-serif" font-size="14" lengthAdjust="spacing" textLength="211" x="261" y="490.7988">created_by : uuid «user.uuid FK»</text><text fill="#000000" font-family="sans-serif" font-size="14" lengthAdjust="spacing" textLength="148" x="261" y="508.4082">updated_at : timestamp</text><text fill="#000000" font-family="sans-serif" font-size="14" lengthAdjust="spacing" textLength="184" x="261" y="526.0176">updated_by : «user.uuid FK»</text></g><!--MD5=[2d6166ae7cfd40a46efdef2e75dcdd60]
class services--><g id="elem_services"><rect codeLine="56" fill="#F1F1F1" height="118.4375" id="services" rx="2.5" ry="2.5" style="stroke:#181818;stroke-width:0.5;" width="242" x="251.5" y="593"/><rect fill="#98FB98" height="32" rx="2.5" ry="2.5" style="stroke:#98FB98;stroke-width:0.5;" width="242" x="251.5" y="593"/><rect fill="#98FB98" height="2.5" style="stroke:#98FB98;stroke-width:0.5;" width="242" x="251.5" y="622.5"/><rect codeLine="56" fill="none" height="118.4375" id="services" rx="2.5" ry="2.5" style="stroke:#181818;stroke-width:0.5;" width="242" x="251.5" y="593"/><ellipse cx="295.75" cy="609" fill="#ADD1B2" rx="11" ry="11" style="stroke:#181818;stroke-width:1.0;"/><path d="M294.6094,609.7969 L294.6094,612.2969 L298.9375,612.2969 L298.9375,611.375 Q298.9375,610.7656 299.1719,610.5 Q299.4219,610.2344 299.7969,610.2344 Q300.1719,610.2344 300.4063,610.5 Q300.6406,610.7656 300.6406,611.375 L300.6406,614 L292.6406,614 Q292.0156,614 291.75,613.7656 Q291.5,613.5313 291.5,613.1406 Q291.5,612.7656 291.7656,612.5313 Q292.0313,612.2969 292.6406,612.2969 L292.9063,612.2969 L292.9063,605.6406 L292.6406,605.6406 Q292.0156,605.6406 291.75,605.4063 Q291.5,605.1719 291.5,604.7813 Q291.5,604.4063 291.75,604.1719 Q292.0156,603.9375 292.6406,603.9375 L300.2656,603.9375 L300.2656,606.5313 Q300.2656,607.1406 300.0313,607.4063 Q299.8125,607.6563 299.4219,607.6563 Q299.0469,607.6563 298.8125,607.4063 Q298.5781,607.1406 298.5781,606.5313 L298.5781,605.6406 L294.6094,605.6406 L294.6094,608.0938 L296.0938,608.0938 Q296.0938,607.4375 296.2188,607.25 Q296.4844,606.8438 296.9531,606.8438 Q297.3281,606.8438 297.5625,607.1094 Q297.7969,607.3594 297.7969,607.9688 L297.7969,609.9375 Q297.7969,610.4844 297.6719,610.6719 Q297.4063,611.0625 296.9531,611.0625 Q296.4844,611.0625 296.2188,610.6563 Q296.0938,610.4688 296.0938,609.7969 L294.6094,609.7969 Z " fill="#000000"/><text fill="#000000" font-family="sans-serif" font-size="14" font-weight="bold" lengthAdjust="spacing" textLength="141" x="316.25" y="614.7285">Сервисы (services)</text><line style="stroke:#181818;stroke-width:0.5;" x1="252.5" x2="492.5" y1="625" y2="625"/><ellipse cx="262.5" cy="639.3047" fill="#000000" rx="3" ry="3" style="stroke:#000000;stroke-width:1.0;"/><text fill="#4169E1" font-family="sans-serif" font-size="14" lengthAdjust="spacing" textLength="173" x="271.5" y="643.5332">id : int «autogenerated PK»</text><line style="stroke:#181818;stroke-width:1.0;stroke-dasharray:1.0,2.0;" x1="252.5" x2="492.5" y1="650.6094" y2="650.6094"/><ellipse cx="262.5" cy="664.9141" fill="#000000" rx="3" ry="3" style="stroke:#000000;stroke-width:1.0;"/><text fill="#000000" font-family="sans-serif" font-size="14" lengthAdjust="spacing" textLength="116" x="271.5" y="669.1426">name : string(200)</text><ellipse cx="262.5" cy="682.5234" fill="#000000" rx="3" ry="3" style="stroke:#000000;stroke-width:1.0;"/><text fill="#000000" font-family="sans-serif" font-size="14" lengthAdjust="spacing" textLength="216" x="271.5" y="686.752">is_enable : boolean «default true»</text><text fill="#000000" font-family="sans-serif" font-size="14" lengthAdjust="spacing" textLength="122" x="271.5" y="704.3613">default_route : json</text></g><!--MD5=[9bb17fa743f99e0a93eefef3fe62073b]
class files--><g id="elem_files"><rect codeLine="64" fill="#F1F1F1" height="206.4844" id="files" rx="2.5" ry="2.5" style="stroke:#181818;stroke-width:0.5;" width="237" x="539" y="318"/><rect fill="#98FB98" height="32" rx="2.5" ry="2.5" style="stroke:#98FB98;stroke-width:0.5;" width="237" x="539" y="318"/><rect fill="#98FB98" height="2.5" style="stroke:#98FB98;stroke-width:0.5;" width="237" x="539" y="347.5"/><rect codeLine="64" fill="none" height="206.4844" id="files" rx="2.5" ry="2.5" style="stroke:#181818;stroke-width:0.5;" width="237" x="539" y="318"/><ellipse cx="593.25" cy="334" fill="#ADD1B2" rx="11" ry="11" style="stroke:#181818;stroke-width:1.0;"/><path d="M592.1094,334.7969 L592.1094,337.2969 L596.4375,337.2969 L596.4375,336.375 Q596.4375,335.7656 596.6719,335.5 Q596.9219,335.2344 597.2969,335.2344 Q597.6719,335.2344 597.9063,335.5 Q598.1406,335.7656 598.1406,336.375 L598.1406,339 L590.1406,339 Q589.5156,339 589.25,338.7656 Q589,338.5313 589,338.1406 Q589,337.7656 589.2656,337.5313 Q589.5313,337.2969 590.1406,337.2969 L590.4063,337.2969 L590.4063,330.6406 L590.1406,330.6406 Q589.5156,330.6406 589.25,330.4063 Q589,330.1719 589,329.7813 Q589,329.4063 589.25,329.1719 Q589.5156,328.9375 590.1406,328.9375 L597.7656,328.9375 L597.7656,331.5313 Q597.7656,332.1406 597.5313,332.4063 Q597.3125,332.6563 596.9219,332.6563 Q596.5469,332.6563 596.3125,332.4063 Q596.0781,332.1406 596.0781,331.5313 L596.0781,330.6406 L592.1094,330.6406 L592.1094,333.0938 L593.5938,333.0938 Q593.5938,332.4375 593.7188,332.25 Q593.9844,331.8438 594.4531,331.8438 Q594.8281,331.8438 595.0625,332.1094 Q595.2969,332.3594 595.2969,332.9688 L595.2969,334.9375 Q595.2969,335.4844 595.1719,335.6719 Q594.9063,336.0625 594.4531,336.0625 Q593.9844,336.0625 593.7188,335.6563 Q593.5938,335.4688 593.5938,334.7969 L592.1094,334.7969 Z " fill="#000000"/><text fill="#000000" font-family="sans-serif" font-size="14" font-weight="bold" lengthAdjust="spacing" textLength="116" x="613.75" y="339.7285">Вложения (files)</text><line style="stroke:#181818;stroke-width:0.5;" x1="540" x2="775" y1="350" y2="350"/><ellipse cx="550" cy="364.3047" fill="#000000" rx="3" ry="3" style="stroke:#000000;stroke-width:1.0;"/><text fill="#4169E1" font-family="sans-serif" font-size="14" lengthAdjust="spacing" textLength="185" x="559" y="368.5332">id : uuid «autogenerated PK»</text><line style="stroke:#181818;stroke-width:1.0;stroke-dasharray:1.0,2.0;" x1="540" x2="775" y1="375.6094" y2="375.6094"/><ellipse cx="550" cy="389.9141" fill="#000000" rx="3" ry="3" style="stroke:#000000;stroke-width:1.0;"/><text fill="#000000" font-family="sans-serif" font-size="14" lengthAdjust="spacing" textLength="47" x="559" y="394.1426">size: int</text><ellipse cx="550" cy="407.5234" fill="#000000" rx="3" ry="3" style="stroke:#000000;stroke-width:1.0;"/><text fill="#000000" font-family="sans-serif" font-size="14" lengthAdjust="spacing" textLength="112" x="559" y="411.752">name: string(200)</text><ellipse cx="550" cy="425.1328" fill="#000000" rx="3" ry="3" style="stroke:#000000;stroke-width:1.0;"/><text fill="#000000" font-family="sans-serif" font-size="14" lengthAdjust="spacing" textLength="93" x="559" y="429.3613">url: string(500)</text><text fill="#000000" font-family="sans-serif" font-size="14" lengthAdjust="spacing" textLength="145" x="559" y="446.9707">mime_type: string(200)</text><text fill="#000000" font-family="sans-serif" font-size="14" lengthAdjust="spacing" textLength="144" x="559" y="464.5801">created_at : timestamp</text><text fill="#000000" font-family="sans-serif" font-size="14" lengthAdjust="spacing" textLength="211" x="559" y="482.1895">created_by : uuid «user.uuid FK»</text><text fill="#000000" font-family="sans-serif" font-size="14" lengthAdjust="spacing" textLength="148" x="559" y="499.7988">updated_at : timestamp</text><text fill="#000000" font-family="sans-serif" font-size="14" lengthAdjust="spacing" textLength="184" x="559" y="517.4082">updated_by : «user.uuid FK»</text></g><!--MD5=[d06ddb70748a0b6bbe5db9ff4dc61ecf]
class statuses--><g id="elem_statuses"><rect codeLine="77" fill="#F1F1F1" height="83.2188" id="statuses" rx="2.5" ry="2.5" style="stroke:#181818;stroke-width:0.5;" width="199" x="7" y="379.5"/><rect fill="#98FB98" height="32" rx="2.5" ry="2.5" style="stroke:#98FB98;stroke-width:0.5;" width="199" x="7" y="379.5"/><rect fill="#98FB98" height="2.5" style="stroke:#98FB98;stroke-width:0.5;" width="199" x="7" y="409"/><rect codeLine="77" fill="none" height="83.2188" id="statuses" rx="2.5" ry="2.5" style="stroke:#181818;stroke-width:0.5;" width="199" x="7" y="379.5"/><ellipse cx="38.2" cy="395.5" fill="#ADD1B2" rx="11" ry="11" style="stroke:#181818;stroke-width:1.0;"/><path d="M37.0594,396.2969 L37.0594,398.7969 L41.3875,398.7969 L41.3875,397.875 Q41.3875,397.2656 41.6219,397 Q41.8719,396.7344 42.2469,396.7344 Q42.6219,396.7344 42.8563,397 Q43.0906,397.2656 43.0906,397.875 L43.0906,400.5 L35.0906,400.5 Q34.4656,400.5 34.2,400.2656 Q33.95,400.0313 33.95,399.6406 Q33.95,399.2656 34.2156,399.0313 Q34.4813,398.7969 35.0906,398.7969 L35.3563,398.7969 L35.3563,392.1406 L35.0906,392.1406 Q34.4656,392.1406 34.2,391.9063 Q33.95,391.6719 33.95,391.2813 Q33.95,390.9063 34.2,390.6719 Q34.4656,390.4375 35.0906,390.4375 L42.7156,390.4375 L42.7156,393.0313 Q42.7156,393.6406 42.4813,393.9063 Q42.2625,394.1563 41.8719,394.1563 Q41.4969,394.1563 41.2625,393.9063 Q41.0281,393.6406 41.0281,393.0313 L41.0281,392.1406 L37.0594,392.1406 L37.0594,394.5938 L38.5438,394.5938 Q38.5438,393.9375 38.6688,393.75 Q38.9344,393.3438 39.4031,393.3438 Q39.7781,393.3438 40.0125,393.6094 Q40.2469,393.8594 40.2469,394.4688 L40.2469,396.4375 Q40.2469,396.9844 40.1219,397.1719 Q39.8563,397.5625 39.4031,397.5625 Q38.9344,397.5625 38.6688,397.1563 Q38.5438,396.9688 38.5438,396.2969 L37.0594,396.2969 Z " fill="#000000"/><text fill="#000000" font-family="sans-serif" font-size="14" font-weight="bold" lengthAdjust="spacing" textLength="131" x="55.8" y="401.2285">Статусы (statuses)</text><line style="stroke:#181818;stroke-width:0.5;" x1="8" x2="205" y1="411.5" y2="411.5"/><ellipse cx="18" cy="425.8047" fill="#000000" rx="3" ry="3" style="stroke:#000000;stroke-width:1.0;"/><text fill="#4169E1" font-family="sans-serif" font-size="14" lengthAdjust="spacing" textLength="173" x="27" y="430.0332">id : int «autogenerated PK»</text><line style="stroke:#181818;stroke-width:1.0;stroke-dasharray:1.0,2.0;" x1="8" x2="205" y1="437.1094" y2="437.1094"/><ellipse cx="18" cy="451.4141" fill="#000000" rx="3" ry="3" style="stroke:#000000;stroke-width:1.0;"/><text fill="#000000" font-family="sans-serif" font-size="14" lengthAdjust="spacing" textLength="116" x="27" y="455.6426">name : string(200)</text></g><!--MD5=[d79411cda5c24f807fde81143d49e649]
link users to requests--><g id="link_users_requests"><path codeLine="83" d="M372.5,257.29 C372.5,257.29 372.5,300.73 372.5,300.73 " fill="none" id="users-requests" style="stroke:#181818;stroke-width:1.0;"/><line style="stroke:#181818;stroke-width:1.0;" x1="372.5" x2="378.5" y1="300.73" y2="308.73"/><line style="stroke:#181818;stroke-width:1.0;" x1="372.5" x2="366.5" y1="300.73" y2="308.73"/><line style="stroke:#181818;stroke-width:1.0;" x1="372.5" x2="372.5" y1="300.73" y2="308.73"/><ellipse cx="372.5" cy="294.73" fill="none" rx="4" ry="4" style="stroke:#181818;stroke-width:1.0;"/><line style="stroke:#181818;stroke-width:1.0;" x1="368.5" x2="376.5" y1="253.29" y2="253.29"/><line style="stroke:#181818;stroke-width:1.0;" x1="368.5" x2="376.5" y1="256.29" y2="256.29"/><line style="stroke:#181818;stroke-width:1.0;" x1="372.5" x2="372.5" y1="257.29" y2="249.29"/><text fill="#000000" font-family="sans-serif" font-size="13" lengthAdjust="spacing" textLength="47" x="324.5" y="275.5051">создает</text></g><!--MD5=[6a29e0f4e49d1f9d1476c549023441dd]
link requests to services--><g id="link_requests_services"><path codeLine="84" d="M372.5,541.12 C372.5,541.12 372.5,584.97 372.5,584.97 " fill="none" id="requests-services" style="stroke:#181818;stroke-width:1.0;"/><line style="stroke:#181818;stroke-width:1.0;" x1="376.5" x2="368.5" y1="588.97" y2="588.97"/><line style="stroke:#181818;stroke-width:1.0;" x1="376.5" x2="368.5" y1="585.97" y2="585.97"/><line style="stroke:#181818;stroke-width:1.0;" x1="372.5" x2="372.5" y1="584.97" y2="592.97"/><line style="stroke:#181818;stroke-width:1.0;" x1="372.5" x2="366.5" y1="541.12" y2="533.12"/><line style="stroke:#181818;stroke-width:1.0;" x1="372.5" x2="378.5" y1="541.12" y2="533.12"/><line style="stroke:#181818;stroke-width:1.0;" x1="372.5" x2="372.5" y1="541.12" y2="533.12"/><ellipse cx="372.5" cy="547.12" fill="none" rx="4" ry="4" style="stroke:#181818;stroke-width:1.0;"/><text fill="#000000" font-family="sans-serif" font-size="13" lengthAdjust="spacing" textLength="78" x="293.5" y="559.5351">принадлежит</text></g><!--MD5=[7a396d47ccf5ca91c921136d522692ac]
link requests to files--><g id="link_requests_files"><path codeLine="85" d="M512.15,421 C512.15,421 530.7,421 530.7,421 " fill="none" id="requests-files" style="stroke:#181818;stroke-width:1.0;"/><line style="stroke:#181818;stroke-width:1.0;" x1="527.7" x2="538.7" y1="421" y2="421"/><ellipse cx="527.7" cy="421" fill="none" rx="4" ry="4" style="stroke:#181818;stroke-width:1.0;"/><line style="stroke:#181818;stroke-width:1.0;" x1="534.7" x2="534.7" y1="417" y2="425"/><line style="stroke:#181818;stroke-width:1.0;" x1="508.15" x2="508.15" y1="425" y2="417"/><line style="stroke:#181818;stroke-width:1.0;" x1="511.15" x2="511.15" y1="425" y2="417"/><line style="stroke:#181818;stroke-width:1.0;" x1="512.15" x2="504.15" y1="421" y2="421"/></g><!--MD5=[6e39a6b920471017b7bc2ed365ae8b76]
link statuses to requests--><g id="link_statuses_requests"><path codeLine="86" d="M214.31,421 C214.31,421 232.58,421 232.58,421 " fill="none" id="statuses-requests" style="stroke:#181818;stroke-width:1.0;"/><line style="stroke:#181818;stroke-width:1.0;" x1="232.58" x2="240.58" y1="421" y2="415"/><line style="stroke:#181818;stroke-width:1.0;" x1="232.58" x2="240.58" y1="421" y2="427"/><line style="stroke:#181818;stroke-width:1.0;" x1="232.58" x2="240.58" y1="421" y2="421"/><ellipse cx="226.58" cy="421" fill="none" rx="4" ry="4" style="stroke:#181818;stroke-width:1.0;"/><line style="stroke:#181818;stroke-width:1.0;" x1="210.31" x2="210.31" y1="425" y2="417"/><line style="stroke:#181818;stroke-width:1.0;" x1="213.31" x2="213.31" y1="425" y2="417"/><line style="stroke:#181818;stroke-width:1.0;" x1="214.31" x2="206.31" y1="421" y2="421"/></g><rect fill="#FFE4E1" height="82.4375" id="_legend" rx="7.5" ry="7.5" style="stroke:#D87093;stroke-width:1.0;" width="189" x="572" y="725.4375"/><text fill="#D87093" font-family="sans-serif" font-size="14" font-weight="bold" lengthAdjust="spacing" textLength="173" x="578" y="745.9707">Условные обозначения:</text><ellipse cx="583.5" cy="759.1563" fill="#D87093" rx="2.5" ry="2.5" style="stroke:#D87093;stroke-width:0.0;"/><text fill="#D87093" font-family="sans-serif" font-size="14" lengthAdjust="spacing" textLength="138" x="591" y="763.5801">- обязательное поле</text><text fill="#D87093" font-family="sans-serif" font-size="14" lengthAdjust="spacing" textLength="139" x="578" y="781.1895">PK - первичный ключ</text><text fill="#D87093" font-family="sans-serif" font-size="14" lengthAdjust="spacing" textLength="125" x="578" y="798.7988">FK - внешний ключ</text><!--MD5=[cdf9904ce82978503feebfa3e6accd7f]
@startuml user_requests_erd_example
'Версия: 1.0
'Автор: Окунев Е.Е. (okunev.evgeni@gmail.com)

!function $autogenerated($a)
!return "<color:RoyalBlue>" + $a + " <<autogenerated PK>></color>"
!endfunction

!function $unique($a)
!return "<color:Crimson>" + $a + " <<unique>></color>"
!endfunction

!function $setBold($a)
!return "<b>" + $a + " </b>"
!endfunction

skinparam BackgroundColor SeaShell
skinparam LegendBackgroundColor MistyRose
skinparam LegendBorderColor PaleVioletRed
skinparam LegendFontColor PaleVioletRed

skinparam Class {
    HeaderBackgroundColor PaleGreen
}

skinparam linetype ortho

entity "$setBold("Пользователи (users)")" as users {
    * $autogenerated("id : uuid")
    ..
    * $unique("username : sting(50)")
    * password : sting(50)
    * name : string(200)
    * surname : string(200)
    patronimyc : string(200)
    * email : string(100)
    is_active : boolean <<default true>>
    birth_date : date
    created_at : timestamp
    updated_at: timestamp
}

entity "$setBold("Заявки (requests)")" as requests {
    * $autogenerated("id : uuid")
    ..
    * auhor_id : uuid <<users.uuid FK>>
    * service_id : int <<service.id FK>>
    * status_id : int <<statuses>>
    * description : text
    attached_file_id : uuid <<files.uuid FK>>
    created_at : timestamp
    created_by : uuid <<user.uuid FK>>
    updated_at : timestamp
    updated_by : <<user.uuid FK>>
}

entity "$setBold("Сервисы (services)")" as services {
    * $autogenerated("id : int")
    ..
    * name : string(200)
    * is_enable : boolean <<default true>>
    default_route : json
}

entity "$setBold("Вложения (files)")" as files {
    * $autogenerated("id : uuid")
    ..
    * size: int
    * name: string(200)
    * url: string(500)
    mime_type: string(200)
    created_at : timestamp
    created_by : uuid <<user.uuid FK>>
    updated_at : timestamp
    updated_by : <<user.uuid FK>>    
}

entity "**Статусы (statuses)**" as statuses {
    * $autogenerated("id : int")
    ..
    * name : string(200)
}

users ||- -o{ requests : создает
requests }o- -|| services : принадлежит
requests ||- -right- -o| files
requests }o-left-|| statuses

legend right
$setBold("Условные обозначения:")
* - обязательное поле
PK - первичный ключ
FK - внешний ключ
end legend

@enduml

@startuml user_requests_erd_example




skinparam BackgroundColor SeaShell
skinparam LegendBackgroundColor MistyRose
skinparam LegendBorderColor PaleVioletRed
skinparam LegendFontColor PaleVioletRed

skinparam Class {
    HeaderBackgroundColor PaleGreen
}

skinparam linetype ortho

entity "<b>Пользователи (users) </b>" as users {
    * <color:RoyalBlue>id : uuid <<autogenerated PK>></color>
    ..
    * <color:Crimson>username : sting(50) <<unique>></color>
    * password : sting(50)
    * name : string(200)
    * surname : string(200)
    patronimyc : string(200)
    * email : string(100)
    is_active : boolean <<default true>>
    birth_date : date
    created_at : timestamp
    updated_at: timestamp
}

entity "<b>Заявки (requests) </b>" as requests {
    * <color:RoyalBlue>id : uuid <<autogenerated PK>></color>
    ..
    * auhor_id : uuid <<users.uuid FK>>
    * service_id : int <<service.id FK>>
    * status_id : int <<statuses>>
    * description : text
    attached_file_id : uuid <<files.uuid FK>>
    created_at : timestamp
    created_by : uuid <<user.uuid FK>>
    updated_at : timestamp
    updated_by : <<user.uuid FK>>
}

entity "<b>Сервисы (services) </b>" as services {
    * <color:RoyalBlue>id : int <<autogenerated PK>></color>
    ..
    * name : string(200)
    * is_enable : boolean <<default true>>
    default_route : json
}

entity "<b>Вложения (files) </b>" as files {
    * <color:RoyalBlue>id : uuid <<autogenerated PK>></color>
    ..
    * size: int
    * name: string(200)
    * url: string(500)
    mime_type: string(200)
    created_at : timestamp
    created_by : uuid <<user.uuid FK>>
    updated_at : timestamp
    updated_by : <<user.uuid FK>>    
}

entity "**Статусы (statuses)**" as statuses {
    * <color:RoyalBlue>id : int <<autogenerated PK>></color>
    ..
    * name : string(200)
}

users ||- -o{ requests : создает
requests }o- -|| services : принадлежит
requests ||- -right- -o| files
requests }o-left-|| statuses

legend right
<b>Условные обозначения: </b>
* - обязательное поле
PK - первичный ключ
FK - внешний ключ
end legend

@enduml

PlantUML version 1.2022.7(Mon Aug 22 20:01:30 MSK 2022)
(GPL source distribution)
Java Runtime: OpenJDK Runtime Environment
JVM: OpenJDK 64-Bit Server VM
Default Encoding: Cp1251
Language: ru
Country: RU
--></g></svg>