<?xml version="1.0" encoding="us-ascii" standalone="no"?><svg xmlns="http://www.w3.org/2000/svg" xmlns:xlink="http://www.w3.org/1999/xlink" contentStyleType="text/css" height="756px" preserveAspectRatio="none" style="width:987px;height:756px;background:#FFF5EE;" version="1.1" viewBox="0 0 987 756" width="987px" zoomAndPan="magnify"><defs/><g><rect fill="#FFF5EE" height="756" style="stroke:none;stroke-width:1.0;" width="987" x="0" y="0"/><text fill="#888888" font-family="sans-serif" font-size="10" lengthAdjust="spacing" textLength="128" x="845.5" y="9.2822">&#1055;&#1088;&#1080;&#1084;&#1077;&#1088; ER-&#1076;&#1080;&#1072;&#1075;&#1088;&#1072;&#1084;&#1084;&#1099;</text><text fill="#A0522D" font-family="sans-serif" font-size="14" font-weight="bold" lengthAdjust="spacing" textLength="313" x="330.25" y="35.6357">ER-&#1076;&#1080;&#1072;&#1075;&#1088;&#1072;&#1084;&#1084;&#1072; "&#1047;&#1072;&#1103;&#1074;&#1082;&#1072; &#1087;&#1086;&#1083;&#1100;&#1079;&#1086;&#1074;&#1072;&#1090;&#1077;&#1083;&#1103;"</text><!--class users--><g id="elem_users"><rect codeLine="31" fill="#F1F1F1" height="227.2656" id="users" rx="2.5" ry="2.5" style="stroke:#181818;stroke-width:0.5;" width="264" x="7" y="205.9375"/><rect fill="#98FB98" height="32" rx="2.5" ry="2.5" style="stroke:#98FB98;stroke-width:0.5;" width="264" x="7" y="205.9375"/><rect fill="#98FB98" height="2.5" style="stroke:#98FB98;stroke-width:0.5;" width="264" x="7" y="235.4375"/><rect codeLine="31" fill="none" height="227.2656" id="users" rx="2.5" ry="2.5" style="stroke:#181818;stroke-width:0.5;" width="264" x="7" y="205.9375"/><ellipse cx="44.05" cy="221.9375" fill="#ADD1B2" rx="11" ry="11" style="stroke:#181818;stroke-width:1.0;"/><path d="M42.8469,222.8125 L44.3,222.8125 L44.3,222.9219 C44.3,223.3281 44.3313,223.4844 44.4094,223.6406 C44.5656,223.8906 44.8469,224.0469 45.1438,224.0469 C45.3938,224.0469 45.6594,223.9063 45.8156,223.6875 C45.9406,223.5313 45.9719,223.375 45.9719,222.9219 L45.9719,221 C45.9719,220.8438 45.9719,220.7969 45.9563,220.6406 C45.8938,220.1719 45.5813,219.8594 45.1281,219.8594 C44.8781,219.8594 44.6125,220 44.4406,220.2188 C44.3313,220.3906 44.3,220.5469 44.3,221 L44.3,221.125 L42.8469,221.125 L42.8469,218.7188 L46.8313,218.7188 L46.8313,219.5781 C46.8313,219.9844 46.8625,220.1563 46.9406,220.3125 C47.1125,220.5625 47.3938,220.7188 47.675,220.7188 C47.9406,220.7188 48.2063,220.5781 48.3781,220.3594 C48.4875,220.1875 48.5188,220.0469 48.5188,219.5781 L48.5188,217.0313 L40.8938,217.0313 C40.4563,217.0313 40.3313,217.0469 40.175,217.1406 C39.925,217.2969 39.7688,217.5938 39.7688,217.875 C39.7688,218.1563 39.9094,218.4063 40.1281,218.5781 C40.2844,218.6875 40.4719,218.7188 40.8938,218.7188 L41.1438,218.7188 L41.1438,225.2344 L40.8938,225.2344 C40.4875,225.2344 40.3313,225.25 40.175,225.3594 C39.925,225.5313 39.7688,225.7969 39.7688,226.0938 C39.7688,226.3594 39.9094,226.6094 40.1281,226.7656 C40.2688,226.8906 40.5031,226.9375 40.8938,226.9375 L48.8938,226.9375 L48.8938,224.3594 C48.8938,223.9219 48.8625,223.7813 48.7844,223.625 C48.6125,223.375 48.3313,223.2188 48.05,223.2188 C47.7844,223.2188 47.5188,223.3281 47.3469,223.5781 C47.2375,223.7344 47.2063,223.875 47.2063,224.3594 L47.2063,225.2344 L42.8469,225.2344 L42.8469,222.8125 Z " fill="#000000"/><text fill="#000000" font-family="sans-serif" font-size="14" font-weight="bold" lengthAdjust="spacing" textLength="178" x="62.95" y="226.7842">&#1055;&#1086;&#1083;&#1100;&#1079;&#1086;&#1074;&#1072;&#1090;&#1077;&#1083;&#1100; (users)</text><line style="stroke:#181818;stroke-width:0.5;" x1="8" x2="270" y1="237.9375" y2="237.9375"/><ellipse cx="18" cy="251.5859" fill="#000000" rx="3" ry="3" style="stroke:#000000;stroke-width:1.0;"/><text fill="#4169E1" font-family="sans-serif" font-size="14" lengthAdjust="spacing" textLength="205" x="27" y="254.9326">id : uuid &#171;autogenerated PK&#187;</text><line style="stroke:#181818;stroke-width:1.0;stroke-dasharray:1.0,2.0;" x1="8" x2="270" y1="262.2344" y2="262.2344"/><ellipse cx="18" cy="275.8828" fill="#000000" rx="3" ry="3" style="stroke:#000000;stroke-width:1.0;"/><text fill="#DC143C" font-family="sans-serif" font-size="14" lengthAdjust="spacing" textLength="220" x="27" y="279.2295">username : string(50) &#171;unique&#187;</text><ellipse cx="18" cy="292.1797" fill="#000000" rx="3" ry="3" style="stroke:#000000;stroke-width:1.0;"/><text fill="#000000" font-family="sans-serif" font-size="14" lengthAdjust="spacing" textLength="150" x="27" y="295.5264">password : string(50)</text><ellipse cx="18" cy="308.4766" fill="#000000" rx="3" ry="3" style="stroke:#000000;stroke-width:1.0;"/><text fill="#000000" font-family="sans-serif" font-size="14" lengthAdjust="spacing" textLength="131" x="27" y="311.8232">name : string(200)</text><ellipse cx="18" cy="324.7734" fill="#000000" rx="3" ry="3" style="stroke:#000000;stroke-width:1.0;"/><text fill="#000000" font-family="sans-serif" font-size="14" lengthAdjust="spacing" textLength="152" x="27" y="328.1201">surname : string(200)</text><text fill="#000000" font-family="sans-serif" font-size="14" lengthAdjust="spacing" textLength="174" x="27" y="344.417">patronimyc : string(200)</text><ellipse cx="18" cy="357.3672" fill="#000000" rx="3" ry="3" style="stroke:#000000;stroke-width:1.0;"/><text fill="#000000" font-family="sans-serif" font-size="14" lengthAdjust="spacing" textLength="131" x="27" y="360.7139">email : string(100)</text><text fill="#000000" font-family="sans-serif" font-size="14" lengthAdjust="spacing" textLength="238" x="27" y="377.0107">is_active : boolean &#171;default true&#187;</text><text fill="#000000" font-family="sans-serif" font-size="14" lengthAdjust="spacing" textLength="122" x="27" y="393.3076">birth_date : date</text><text fill="#000000" font-family="sans-serif" font-size="14" lengthAdjust="spacing" textLength="171" x="27" y="409.6045">created_at : timestamp</text><text fill="#000000" font-family="sans-serif" font-size="14" lengthAdjust="spacing" textLength="171" x="27" y="425.9014">updated_at: timestamp</text></g><!--class requests--><g id="elem_requests"><rect codeLine="46" fill="#F1F1F1" height="210.9688" id="requests" rx="2.5" ry="2.5" style="stroke:#181818;stroke-width:0.5;" width="289" x="385.5" y="214.4375"/><rect fill="#98FB98" height="32" rx="2.5" ry="2.5" style="stroke:#98FB98;stroke-width:0.5;" width="289" x="385.5" y="214.4375"/><rect fill="#98FB98" height="2.5" style="stroke:#98FB98;stroke-width:0.5;" width="289" x="385.5" y="243.9375"/><rect codeLine="46" fill="none" height="210.9688" id="requests" rx="2.5" ry="2.5" style="stroke:#181818;stroke-width:0.5;" width="289" x="385.5" y="214.4375"/><ellipse cx="450.75" cy="230.4375" fill="#ADD1B2" rx="11" ry="11" style="stroke:#181818;stroke-width:1.0;"/><path d="M449.5469,231.3125 L451,231.3125 L451,231.4219 C451,231.8281 451.0313,231.9844 451.1094,232.1406 C451.2656,232.3906 451.5469,232.5469 451.8438,232.5469 C452.0938,232.5469 452.3594,232.4063 452.5156,232.1875 C452.6406,232.0313 452.6719,231.875 452.6719,231.4219 L452.6719,229.5 C452.6719,229.3438 452.6719,229.2969 452.6563,229.1406 C452.5938,228.6719 452.2813,228.3594 451.8281,228.3594 C451.5781,228.3594 451.3125,228.5 451.1406,228.7188 C451.0313,228.8906 451,229.0469 451,229.5 L451,229.625 L449.5469,229.625 L449.5469,227.2188 L453.5313,227.2188 L453.5313,228.0781 C453.5313,228.4844 453.5625,228.6563 453.6406,228.8125 C453.8125,229.0625 454.0938,229.2188 454.375,229.2188 C454.6406,229.2188 454.9063,229.0781 455.0781,228.8594 C455.1875,228.6875 455.2188,228.5469 455.2188,228.0781 L455.2188,225.5313 L447.5938,225.5313 C447.1563,225.5313 447.0313,225.5469 446.875,225.6406 C446.625,225.7969 446.4688,226.0938 446.4688,226.375 C446.4688,226.6563 446.6094,226.9063 446.8281,227.0781 C446.9844,227.1875 447.1719,227.2188 447.5938,227.2188 L447.8438,227.2188 L447.8438,233.7344 L447.5938,233.7344 C447.1875,233.7344 447.0313,233.75 446.875,233.8594 C446.625,234.0313 446.4688,234.2969 446.4688,234.5938 C446.4688,234.8594 446.6094,235.1094 446.8281,235.2656 C446.9688,235.3906 447.2031,235.4375 447.5938,235.4375 L455.5938,235.4375 L455.5938,232.8594 C455.5938,232.4219 455.5625,232.2813 455.4844,232.125 C455.3125,231.875 455.0313,231.7188 454.75,231.7188 C454.4844,231.7188 454.2188,231.8281 454.0469,232.0781 C453.9375,232.2344 453.9063,232.375 453.9063,232.8594 L453.9063,233.7344 L449.5469,233.7344 L449.5469,231.3125 Z " fill="#000000"/><text fill="#000000" font-family="sans-serif" font-size="14" font-weight="bold" lengthAdjust="spacing" textLength="145" x="471.25" y="235.2842">&#1047;&#1072;&#1103;&#1074;&#1082;&#1072; (requests)</text><line style="stroke:#181818;stroke-width:0.5;" x1="386.5" x2="673.5" y1="246.4375" y2="246.4375"/><ellipse cx="396.5" cy="260.0859" fill="#000000" rx="3" ry="3" style="stroke:#000000;stroke-width:1.0;"/><text fill="#4169E1" font-family="sans-serif" font-size="14" lengthAdjust="spacing" textLength="205" x="405.5" y="263.4326">id : uuid &#171;autogenerated PK&#187;</text><line style="stroke:#181818;stroke-width:1.0;stroke-dasharray:1.0,2.0;" x1="386.5" x2="673.5" y1="270.7344" y2="270.7344"/><ellipse cx="396.5" cy="284.3828" fill="#000000" rx="3" ry="3" style="stroke:#000000;stroke-width:1.0;"/><text fill="#000000" font-family="sans-serif" font-size="14" lengthAdjust="spacing" textLength="215" x="405.5" y="287.7295">auhor_id : uuid &#171;users.uuid FK&#187;</text><ellipse cx="396.5" cy="300.6797" fill="#000000" rx="3" ry="3" style="stroke:#000000;stroke-width:1.0;"/><text fill="#000000" font-family="sans-serif" font-size="14" lengthAdjust="spacing" textLength="215" x="405.5" y="304.0264">service_id : int &#171;service.id FK&#187;</text><ellipse cx="396.5" cy="316.9766" fill="#000000" rx="3" ry="3" style="stroke:#000000;stroke-width:1.0;"/><text fill="#000000" font-family="sans-serif" font-size="14" lengthAdjust="spacing" textLength="177" x="405.5" y="320.3232">status_id : int &#171;statuses&#187;</text><ellipse cx="396.5" cy="333.2734" fill="#000000" rx="3" ry="3" style="stroke:#000000;stroke-width:1.0;"/><text fill="#000000" font-family="sans-serif" font-size="14" lengthAdjust="spacing" textLength="126" x="405.5" y="336.6201">description : text</text><text fill="#000000" font-family="sans-serif" font-size="14" lengthAdjust="spacing" textLength="263" x="405.5" y="352.917">attached_file_id : uuid &#171;files.uuid FK&#187;</text><text fill="#000000" font-family="sans-serif" font-size="14" lengthAdjust="spacing" textLength="171" x="405.5" y="369.2139">created_at : timestamp</text><text fill="#000000" font-family="sans-serif" font-size="14" lengthAdjust="spacing" textLength="229" x="405.5" y="385.5107">created_by : uuid &#171;user.uuid FK&#187;</text><text fill="#000000" font-family="sans-serif" font-size="14" lengthAdjust="spacing" textLength="175" x="405.5" y="401.8076">updated_at : timestamp</text><text fill="#000000" font-family="sans-serif" font-size="14" lengthAdjust="spacing" textLength="200" x="405.5" y="418.1045">updated_by : &#171;user.uuid FK&#187;</text></g><!--class services--><g id="elem_services"><rect codeLine="60" fill="#F1F1F1" height="113.1875" id="services" rx="2.5" ry="2.5" style="stroke:#181818;stroke-width:0.5;" width="269" x="395.5" y="517.9375"/><rect fill="#98FB98" height="32" rx="2.5" ry="2.5" style="stroke:#98FB98;stroke-width:0.5;" width="269" x="395.5" y="517.9375"/><rect fill="#98FB98" height="2.5" style="stroke:#98FB98;stroke-width:0.5;" width="269" x="395.5" y="547.4375"/><rect codeLine="60" fill="none" height="113.1875" id="services" rx="2.5" ry="2.5" style="stroke:#181818;stroke-width:0.5;" width="269" x="395.5" y="517.9375"/><ellipse cx="452.75" cy="533.9375" fill="#ADD1B2" rx="11" ry="11" style="stroke:#181818;stroke-width:1.0;"/><path d="M451.5469,534.8125 L453,534.8125 L453,534.9219 C453,535.3281 453.0313,535.4844 453.1094,535.6406 C453.2656,535.8906 453.5469,536.0469 453.8438,536.0469 C454.0938,536.0469 454.3594,535.9063 454.5156,535.6875 C454.6406,535.5313 454.6719,535.375 454.6719,534.9219 L454.6719,533 C454.6719,532.8438 454.6719,532.7969 454.6563,532.6406 C454.5938,532.1719 454.2813,531.8594 453.8281,531.8594 C453.5781,531.8594 453.3125,532 453.1406,532.2188 C453.0313,532.3906 453,532.5469 453,533 L453,533.125 L451.5469,533.125 L451.5469,530.7188 L455.5313,530.7188 L455.5313,531.5781 C455.5313,531.9844 455.5625,532.1563 455.6406,532.3125 C455.8125,532.5625 456.0938,532.7188 456.375,532.7188 C456.6406,532.7188 456.9063,532.5781 457.0781,532.3594 C457.1875,532.1875 457.2188,532.0469 457.2188,531.5781 L457.2188,529.0313 L449.5938,529.0313 C449.1563,529.0313 449.0313,529.0469 448.875,529.1406 C448.625,529.2969 448.4688,529.5938 448.4688,529.875 C448.4688,530.1563 448.6094,530.4063 448.8281,530.5781 C448.9844,530.6875 449.1719,530.7188 449.5938,530.7188 L449.8438,530.7188 L449.8438,537.2344 L449.5938,537.2344 C449.1875,537.2344 449.0313,537.25 448.875,537.3594 C448.625,537.5313 448.4688,537.7969 448.4688,538.0938 C448.4688,538.3594 448.6094,538.6094 448.8281,538.7656 C448.9688,538.8906 449.2031,538.9375 449.5938,538.9375 L457.5938,538.9375 L457.5938,536.3594 C457.5938,535.9219 457.5625,535.7813 457.4844,535.625 C457.3125,535.375 457.0313,535.2188 456.75,535.2188 C456.4844,535.2188 456.2188,535.3281 456.0469,535.5781 C455.9375,535.7344 455.9063,535.875 455.9063,536.3594 L455.9063,537.2344 L451.5469,537.2344 L451.5469,534.8125 Z " fill="#000000"/><text fill="#000000" font-family="sans-serif" font-size="14" font-weight="bold" lengthAdjust="spacing" textLength="141" x="473.25" y="538.7842">&#1057;&#1077;&#1088;&#1074;&#1080;&#1089; (services)</text><line style="stroke:#181818;stroke-width:0.5;" x1="396.5" x2="663.5" y1="549.9375" y2="549.9375"/><ellipse cx="406.5" cy="563.5859" fill="#000000" rx="3" ry="3" style="stroke:#000000;stroke-width:1.0;"/><text fill="#4169E1" font-family="sans-serif" font-size="14" lengthAdjust="spacing" textLength="196" x="415.5" y="566.9326">id : int &#171;autogenerated PK&#187;</text><line style="stroke:#181818;stroke-width:1.0;stroke-dasharray:1.0,2.0;" x1="396.5" x2="663.5" y1="574.2344" y2="574.2344"/><ellipse cx="406.5" cy="587.8828" fill="#000000" rx="3" ry="3" style="stroke:#000000;stroke-width:1.0;"/><text fill="#000000" font-family="sans-serif" font-size="14" lengthAdjust="spacing" textLength="131" x="415.5" y="591.2295">name : string(200)</text><ellipse cx="406.5" cy="604.1797" fill="#000000" rx="3" ry="3" style="stroke:#000000;stroke-width:1.0;"/><text fill="#000000" font-family="sans-serif" font-size="14" lengthAdjust="spacing" textLength="243" x="415.5" y="607.5264">is_enable : boolean &#171;default true&#187;</text><text fill="#000000" font-family="sans-serif" font-size="14" lengthAdjust="spacing" textLength="139" x="415.5" y="623.8232">default_route : json</text></g><!--class files--><g id="elem_files"><rect codeLine="68" fill="#F1F1F1" height="194.6719" id="files" rx="2.5" ry="2.5" style="stroke:#181818;stroke-width:0.5;" width="255" x="725.5" y="222.4375"/><rect fill="#98FB98" height="32" rx="2.5" ry="2.5" style="stroke:#98FB98;stroke-width:0.5;" width="255" x="725.5" y="222.4375"/><rect fill="#98FB98" height="2.5" style="stroke:#98FB98;stroke-width:0.5;" width="255" x="725.5" y="251.9375"/><rect codeLine="68" fill="none" height="194.6719" id="files" rx="2.5" ry="2.5" style="stroke:#181818;stroke-width:0.5;" width="255" x="725.5" y="222.4375"/><ellipse cx="778.25" cy="238.4375" fill="#ADD1B2" rx="11" ry="11" style="stroke:#181818;stroke-width:1.0;"/><path d="M777.0469,239.3125 L778.5,239.3125 L778.5,239.4219 C778.5,239.8281 778.5313,239.9844 778.6094,240.1406 C778.7656,240.3906 779.0469,240.5469 779.3438,240.5469 C779.5938,240.5469 779.8594,240.4063 780.0156,240.1875 C780.1406,240.0313 780.1719,239.875 780.1719,239.4219 L780.1719,237.5 C780.1719,237.3438 780.1719,237.2969 780.1563,237.1406 C780.0938,236.6719 779.7813,236.3594 779.3281,236.3594 C779.0781,236.3594 778.8125,236.5 778.6406,236.7188 C778.5313,236.8906 778.5,237.0469 778.5,237.5 L778.5,237.625 L777.0469,237.625 L777.0469,235.2188 L781.0313,235.2188 L781.0313,236.0781 C781.0313,236.4844 781.0625,236.6563 781.1406,236.8125 C781.3125,237.0625 781.5938,237.2188 781.875,237.2188 C782.1406,237.2188 782.4063,237.0781 782.5781,236.8594 C782.6875,236.6875 782.7188,236.5469 782.7188,236.0781 L782.7188,233.5313 L775.0938,233.5313 C774.6563,233.5313 774.5313,233.5469 774.375,233.6406 C774.125,233.7969 773.9688,234.0938 773.9688,234.375 C773.9688,234.6563 774.1094,234.9063 774.3281,235.0781 C774.4844,235.1875 774.6719,235.2188 775.0938,235.2188 L775.3438,235.2188 L775.3438,241.7344 L775.0938,241.7344 C774.6875,241.7344 774.5313,241.75 774.375,241.8594 C774.125,242.0313 773.9688,242.2969 773.9688,242.5938 C773.9688,242.8594 774.1094,243.1094 774.3281,243.2656 C774.4688,243.3906 774.7031,243.4375 775.0938,243.4375 L783.0938,243.4375 L783.0938,240.8594 C783.0938,240.4219 783.0625,240.2813 782.9844,240.125 C782.8125,239.875 782.5313,239.7188 782.25,239.7188 C781.9844,239.7188 781.7188,239.8281 781.5469,240.0781 C781.4375,240.2344 781.4063,240.375 781.4063,240.8594 L781.4063,241.7344 L777.0469,241.7344 L777.0469,239.3125 Z " fill="#000000"/><text fill="#000000" font-family="sans-serif" font-size="14" font-weight="bold" lengthAdjust="spacing" textLength="136" x="798.75" y="243.2842">&#1042;&#1083;&#1086;&#1078;&#1077;&#1085;&#1080;&#1077; (files)</text><line style="stroke:#181818;stroke-width:0.5;" x1="726.5" x2="979.5" y1="254.4375" y2="254.4375"/><ellipse cx="736.5" cy="268.0859" fill="#000000" rx="3" ry="3" style="stroke:#000000;stroke-width:1.0;"/><text fill="#4169E1" font-family="sans-serif" font-size="14" lengthAdjust="spacing" textLength="205" x="745.5" y="271.4326">id : uuid &#171;autogenerated PK&#187;</text><line style="stroke:#181818;stroke-width:1.0;stroke-dasharray:1.0,2.0;" x1="726.5" x2="979.5" y1="278.7344" y2="278.7344"/><ellipse cx="736.5" cy="292.3828" fill="#000000" rx="3" ry="3" style="stroke:#000000;stroke-width:1.0;"/><text fill="#000000" font-family="sans-serif" font-size="14" lengthAdjust="spacing" textLength="57" x="745.5" y="295.7295">size: int</text><ellipse cx="736.5" cy="308.6797" fill="#000000" rx="3" ry="3" style="stroke:#000000;stroke-width:1.0;"/><text fill="#000000" font-family="sans-serif" font-size="14" lengthAdjust="spacing" textLength="127" x="745.5" y="312.0264">name: string(200)</text><ellipse cx="736.5" cy="324.9766" fill="#000000" rx="3" ry="3" style="stroke:#000000;stroke-width:1.0;"/><text fill="#000000" font-family="sans-serif" font-size="14" lengthAdjust="spacing" textLength="106" x="745.5" y="328.3232">url: string(500)</text><text fill="#000000" font-family="sans-serif" font-size="14" lengthAdjust="spacing" textLength="169" x="745.5" y="344.6201">mime_type: string(200)</text><text fill="#000000" font-family="sans-serif" font-size="14" lengthAdjust="spacing" textLength="171" x="745.5" y="360.917">created_at : timestamp</text><text fill="#000000" font-family="sans-serif" font-size="14" lengthAdjust="spacing" textLength="229" x="745.5" y="377.2139">created_by : uuid &#171;user.uuid FK&#187;</text><text fill="#000000" font-family="sans-serif" font-size="14" lengthAdjust="spacing" textLength="175" x="745.5" y="393.5107">updated_at : timestamp</text><text fill="#000000" font-family="sans-serif" font-size="14" lengthAdjust="spacing" textLength="200" x="745.5" y="409.8076">updated_by : &#171;user.uuid FK&#187;</text></g><!--class statuses--><g id="elem_statuses"><rect codeLine="81" fill="#F1F1F1" height="80.5938" id="statuses" rx="2.5" ry="2.5" style="stroke:#181818;stroke-width:0.5;" width="222" x="420" y="56.9375"/><rect fill="#98FB98" height="32" rx="2.5" ry="2.5" style="stroke:#98FB98;stroke-width:0.5;" width="222" x="420" y="56.9375"/><rect fill="#98FB98" height="2.5" style="stroke:#98FB98;stroke-width:0.5;" width="222" x="420" y="86.4375"/><rect codeLine="81" fill="none" height="80.5938" id="statuses" rx="2.5" ry="2.5" style="stroke:#181818;stroke-width:0.5;" width="222" x="420" y="56.9375"/><ellipse cx="451.65" cy="72.9375" fill="#ADD1B2" rx="11" ry="11" style="stroke:#181818;stroke-width:1.0;"/><path d="M450.4469,73.8125 L451.9,73.8125 L451.9,73.9219 C451.9,74.3281 451.9313,74.4844 452.0094,74.6406 C452.1656,74.8906 452.4469,75.0469 452.7438,75.0469 C452.9938,75.0469 453.2594,74.9063 453.4156,74.6875 C453.5406,74.5313 453.5719,74.375 453.5719,73.9219 L453.5719,72 C453.5719,71.8438 453.5719,71.7969 453.5563,71.6406 C453.4938,71.1719 453.1813,70.8594 452.7281,70.8594 C452.4781,70.8594 452.2125,71 452.0406,71.2188 C451.9313,71.3906 451.9,71.5469 451.9,72 L451.9,72.125 L450.4469,72.125 L450.4469,69.7188 L454.4313,69.7188 L454.4313,70.5781 C454.4313,70.9844 454.4625,71.1563 454.5406,71.3125 C454.7125,71.5625 454.9938,71.7188 455.275,71.7188 C455.5406,71.7188 455.8063,71.5781 455.9781,71.3594 C456.0875,71.1875 456.1188,71.0469 456.1188,70.5781 L456.1188,68.0313 L448.4938,68.0313 C448.0563,68.0313 447.9313,68.0469 447.775,68.1406 C447.525,68.2969 447.3688,68.5938 447.3688,68.875 C447.3688,69.1563 447.5094,69.4063 447.7281,69.5781 C447.8844,69.6875 448.0719,69.7188 448.4938,69.7188 L448.7438,69.7188 L448.7438,76.2344 L448.4938,76.2344 C448.0875,76.2344 447.9313,76.25 447.775,76.3594 C447.525,76.5313 447.3688,76.7969 447.3688,77.0938 C447.3688,77.3594 447.5094,77.6094 447.7281,77.7656 C447.8688,77.8906 448.1031,77.9375 448.4938,77.9375 L456.4938,77.9375 L456.4938,75.3594 C456.4938,74.9219 456.4625,74.7813 456.3844,74.625 C456.2125,74.375 455.9313,74.2188 455.65,74.2188 C455.3844,74.2188 455.1188,74.3281 454.9469,74.5781 C454.8375,74.7344 454.8063,74.875 454.8063,75.3594 L454.8063,76.2344 L450.4469,76.2344 L450.4469,73.8125 Z " fill="#000000"/><text fill="#000000" font-family="sans-serif" font-size="14" font-weight="bold" lengthAdjust="spacing" textLength="148" x="469.35" y="77.7842">&#1057;&#1090;&#1072;&#1090;&#1091;&#1089; (statuses)</text><line style="stroke:#181818;stroke-width:0.5;" x1="421" x2="641" y1="88.9375" y2="88.9375"/><ellipse cx="431" cy="102.5859" fill="#000000" rx="3" ry="3" style="stroke:#000000;stroke-width:1.0;"/><text fill="#4169E1" font-family="sans-serif" font-size="14" lengthAdjust="spacing" textLength="196" x="440" y="105.9326">id : int &#171;autogenerated PK&#187;</text><line style="stroke:#181818;stroke-width:1.0;stroke-dasharray:1.0,2.0;" x1="421" x2="641" y1="113.2344" y2="113.2344"/><ellipse cx="431" cy="126.8828" fill="#000000" rx="3" ry="3" style="stroke:#000000;stroke-width:1.0;"/><text fill="#000000" font-family="sans-serif" font-size="14" lengthAdjust="spacing" textLength="131" x="440" y="130.2295">name : string(200)</text></g><!--link users to requests--><g id="link_users_requests"><path codeLine="87" d="M280,250.4375 C332.197,250.4375 314.803,282.4375 367,282.4375 " fill="none" id="users-requests" style="stroke:#181818;stroke-width:1.0;"/><line style="stroke:#181818;stroke-width:1.0;" x1="276" x2="276" y1="254.4375" y2="246.4375"/><line style="stroke:#181818;stroke-width:1.0;" x1="279" x2="279" y1="254.4375" y2="246.4375"/><line style="stroke:#181818;stroke-width:1.0;" x1="280" x2="272" y1="250.4375" y2="250.4375"/><line style="stroke:#181818;stroke-width:1.0;" x1="377" x2="385" y1="282.4375" y2="276.4375"/><line style="stroke:#181818;stroke-width:1.0;" x1="377" x2="385" y1="282.4375" y2="288.4375"/><line style="stroke:#181818;stroke-width:1.0;" x1="377" x2="385" y1="282.4375" y2="282.4375"/><ellipse cx="371" cy="282.4375" fill="none" rx="4" ry="4" style="stroke:#181818;stroke-width:1.0;"/><text fill="#000000" font-family="sans-serif" font-size="13" lengthAdjust="spacing" textLength="55" x="300.5" y="249.5044">&#1089;&#1086;&#1079;&#1076;&#1072;&#1077;&#1090;</text></g><!--link users to requests--><g id="link_users_requests"><path codeLine="88" d="M280,250.4375 C315.734,250.4375 269.309,385.6785 296,409.4375 C325.563,435.7525 327.422,412.4375 367,412.4375 " fill="none" id="users-requests-1" style="stroke:#181818;stroke-width:1.0;"/><line style="stroke:#181818;stroke-width:1.0;" x1="276" x2="276" y1="254.4375" y2="246.4375"/><line style="stroke:#181818;stroke-width:1.0;" x1="279" x2="279" y1="254.4375" y2="246.4375"/><line style="stroke:#181818;stroke-width:1.0;" x1="280" x2="272" y1="250.4375" y2="250.4375"/><line style="stroke:#181818;stroke-width:1.0;" x1="377" x2="385" y1="412.4375" y2="406.4375"/><line style="stroke:#181818;stroke-width:1.0;" x1="377" x2="385" y1="412.4375" y2="418.4375"/><line style="stroke:#181818;stroke-width:1.0;" x1="377" x2="385" y1="412.4375" y2="412.4375"/><ellipse cx="371" cy="412.4375" fill="none" rx="4" ry="4" style="stroke:#181818;stroke-width:1.0;"/><text fill="#000000" font-family="sans-serif" font-size="13" lengthAdjust="spacing" textLength="62" x="297" y="405.5044">&#1080;&#1079;&#1084;&#1077;&#1085;&#1103;&#1077;&#1090;</text></g><!--link users to requests--><g id="link_users_requests"><path codeLine="89" d="M280,250.4375 C323.118,250.4375 267.627,311.9705 296,344.4375 C324.077,376.5665 324.331,380.4375 367,380.4375 " fill="none" id="users-requests-2" style="stroke:#181818;stroke-width:1.0;"/><line style="stroke:#181818;stroke-width:1.0;" x1="276" x2="276" y1="254.4375" y2="246.4375"/><line style="stroke:#181818;stroke-width:1.0;" x1="279" x2="279" y1="254.4375" y2="246.4375"/><line style="stroke:#181818;stroke-width:1.0;" x1="280" x2="272" y1="250.4375" y2="250.4375"/><line style="stroke:#181818;stroke-width:1.0;" x1="377" x2="385" y1="380.4375" y2="374.4375"/><line style="stroke:#181818;stroke-width:1.0;" x1="377" x2="385" y1="380.4375" y2="386.4375"/><line style="stroke:#181818;stroke-width:1.0;" x1="377" x2="385" y1="380.4375" y2="380.4375"/><ellipse cx="371" cy="380.4375" fill="none" rx="4" ry="4" style="stroke:#181818;stroke-width:1.0;"/></g><!--link requests to services--><g id="link_requests_services"><path codeLine="91" d="M694,298.4375 C723.354,298.4375 703.354,562.4375 674,562.4375 " fill="none" id="requests-services" style="stroke:#181818;stroke-width:1.0;"/><line style="stroke:#181818;stroke-width:1.0;" x1="684" x2="676" y1="298.4375" y2="304.4375"/><line style="stroke:#181818;stroke-width:1.0;" x1="684" x2="676" y1="298.4375" y2="292.4375"/><line style="stroke:#181818;stroke-width:1.0;" x1="684" x2="676" y1="298.4375" y2="298.4375"/><ellipse cx="690" cy="298.4375" fill="none" rx="4" ry="4" style="stroke:#181818;stroke-width:1.0;"/><line style="stroke:#181818;stroke-width:1.0;" x1="670" x2="670" y1="566.4375" y2="558.4375"/><line style="stroke:#181818;stroke-width:1.0;" x1="673" x2="673" y1="566.4375" y2="558.4375"/><line style="stroke:#181818;stroke-width:1.0;" x1="674" x2="666" y1="562.4375" y2="562.4375"/><text fill="#000000" font-family="sans-serif" font-size="13" lengthAdjust="spacing" textLength="93" x="691" y="480.0044">&#1087;&#1088;&#1080;&#1085;&#1072;&#1076;&#1083;&#1077;&#1078;&#1080;&#1090;</text></g><!--link statuses to requests--><g id="link_statuses_requests"><path codeLine="92" d="M651,100.9375 C699.008,100.9375 742.008,314.4375 694,314.4375 " fill="none" id="statuses-requests" style="stroke:#181818;stroke-width:1.0;"/><line style="stroke:#181818;stroke-width:1.0;" x1="647" x2="647" y1="104.9375" y2="96.9375"/><line style="stroke:#181818;stroke-width:1.0;" x1="650" x2="650" y1="104.9375" y2="96.9375"/><line style="stroke:#181818;stroke-width:1.0;" x1="651" x2="643" y1="100.9375" y2="100.9375"/><line style="stroke:#181818;stroke-width:1.0;" x1="684" x2="676" y1="314.4375" y2="320.4375"/><line style="stroke:#181818;stroke-width:1.0;" x1="684" x2="676" y1="314.4375" y2="308.4375"/><line style="stroke:#181818;stroke-width:1.0;" x1="684" x2="676" y1="314.4375" y2="314.4375"/><ellipse cx="690" cy="314.4375" fill="none" rx="4" ry="4" style="stroke:#181818;stroke-width:1.0;"/></g><!--link requests to files--><g id="link_requests_files"><path codeLine="93" d="M684,347.4375 C726.075,347.4375 667.925,266.4375 710,266.4375 " fill="none" id="requests-files" style="stroke:#181818;stroke-width:1.0;"/><line style="stroke:#181818;stroke-width:1.0;" x1="680" x2="680" y1="351.4375" y2="343.4375"/><line style="stroke:#181818;stroke-width:1.0;" x1="683" x2="683" y1="351.4375" y2="343.4375"/><line style="stroke:#181818;stroke-width:1.0;" x1="684" x2="676" y1="347.4375" y2="347.4375"/><line style="stroke:#181818;stroke-width:1.0;" x1="714" x2="725" y1="266.4375" y2="266.4375"/><ellipse cx="714" cy="266.4375" fill="none" rx="4" ry="4" style="stroke:#181818;stroke-width:1.0;"/><line style="stroke:#181818;stroke-width:1.0;" x1="721" x2="721" y1="262.4375" y2="270.4375"/></g><rect fill="#FFE4E1" height="75.1875" id="_legend" rx="7.5" ry="7.5" style="stroke:#D87093;stroke-width:1.0;" width="214" x="747.5" y="649.125"/><text fill="#D87093" font-family="sans-serif" font-size="14" font-weight="bold" lengthAdjust="spacing" textLength="199" x="752.5" y="667.1201">&#1059;&#1089;&#1083;&#1086;&#1074;&#1085;&#1099;&#1077; &#1086;&#1073;&#1086;&#1079;&#1085;&#1072;&#1095;&#1077;&#1085;&#1080;&#1103;:</text><ellipse cx="758" cy="679.2188" fill="#D87093" rx="2.5" ry="2.5" style="stroke:#D87093;stroke-width:0.0;"/><text fill="#D87093" font-family="sans-serif" font-size="14" lengthAdjust="spacing" textLength="156" x="764.5" y="683.417">- &#1086;&#1073;&#1103;&#1079;&#1072;&#1090;&#1077;&#1083;&#1100;&#1085;&#1086;&#1077; &#1087;&#1086;&#1083;&#1077;</text><text fill="#D87093" font-family="sans-serif" font-size="14" lengthAdjust="spacing" textLength="158" x="752.5" y="699.7139">PK - &#1087;&#1077;&#1088;&#1074;&#1080;&#1095;&#1085;&#1099;&#1081; &#1082;&#1083;&#1102;&#1095;</text><text fill="#D87093" font-family="sans-serif" font-size="14" lengthAdjust="spacing" textLength="140" x="752.5" y="716.0107">FK - &#1074;&#1085;&#1077;&#1096;&#1085;&#1080;&#1081; &#1082;&#1083;&#1102;&#1095;</text><text fill="#888888" font-family="sans-serif" font-size="10" lengthAdjust="spacing" textLength="113" x="430.25" y="746.5947">Evgeni Okunev, 2023</text><!--SRC=[nLPVQnj747_VJx4-0fQSId5S-YACAJPn2swfiKjVnKetbhO-xQfxUqwLoE0u3ouar2LGyfPG-WKSrQhTABA_mjutwkpgTBhJ7xU1GeMnj3E_cTsP-StiBfjNfX-VnC_CTNnUeG_BgsJP_69wyQcvYKygrBmnx-FdPcZwfaVDhsNyemLv60auAiDH0mJ_lD5YF2ZNPQj8oD919EgQIq7liKXBr8DY6lp2FLOaImfqf0JrrkioaAgo9piis0mYsF3eVJJ0VnvTNyyPqjsTZOtr1yvWmoDB8Fpn5hdT8i5_Y63kDbkAjq8fyfkCyF_ATGXwKmRJ8THo_XxKPZo4XroqcM8jkidgXmqb8-5lsRteFh3z9WH11l8LOCJ-DF1h7khEdWnX5YcL3sg4scK1VCTb07eF_1dajXHw7Yu3t0fO6DAdXEBdIs3eUFeWrlGB1I38CI7B4yk02z2TDb2fT5DcN7xBTG2JhVSv2C486NcdvcryOgxD1yiy-cYlP2vnTM7-GEa5IZ_4BuXpC4zdBgXdNfkB-Dpqp7jScLjpOmRnItE5tprKd29N1_6vHmW8pNM7Uca9FVDsBlWbBKGXgB3e5JtAGkeMIKPMfgdiSPzMQ1HntoiwHBay1YOizAozO2r0NAWL5ut2Pwl51Br2svZknrZ0d3RHvQtMLbD56Aa5kZRJIWhUwjJd6e9jpudcuLZ3mof3gXvPbpM9j602-yA70nO5ccfbkyC1QnoBM_KnTaJQBoUjAx3Pg3ADKirR46hMQZjLrFOJLLPpFBSUsKeM563sGfsMORp- -4gmg2bLDLNRXhSbBRl5zauI6MOLr16lmmZ9XKPW8YfF0JNJKPZ3EGc4ASI7iAvusmqD31n-r4x1j6Rr9gRZW0UGEv8LJ1_fZhIELRLEFgef3vFiBooCyp1ZFBz0lzacnG9Tnyze8SbDMg3n-ku2ORwcwxEGviXA4AmM_2Ch4r4LfvGZvlSuuXU4yCeCiDl_n4uVuYpfqu9B_3W6j_XuXeNy2RZGCX7D2oXIGQRD4t4BorArWtFMulyZW0Ki8W7EIPoLyND7WeJuAGcIzNz10jpUDMgbWaRTRaa-JOT0fP9fQdoltE0ClyGxeH-Vtc6JYnYhVsLl7JF4cJDZPpyvsqc-2Pb8CoFZM9Py-LYKkjsq4vmptEdMtN13FDybig-FxBl6_J9Uqdc2JgAsSv7aqRh886Vc1nvLyKPJbsHtH5vdG4ZWxdlgT2HJlDynMGDttGtZ5qX__FdEPGzF5v-DkWBVVbYT5LfoMipErUHkHFsDDNFthEcJtHqBkqtdmfdp-nV56Jw8VuxFoBO3zEoZCVx9zLn6QOyuEYaX1r9gV0uySkz8-erxLNv2rrRNFlqR]--></g></svg>